# xmcd CD database file
# Generated: Son Sep 28 00:52:14 2003 by KSCD
# 
# Track frame offsets:
#       150
#       12260
#       24088
#       37201
#       60084
#       70347
#       84354
#       97568
#       109279
#       126889
#       137919
#       148325
#       161051
#       171653
#       184356
#       208549
#       218817
#       230442
#
# Disc length: 3256 seconds
#
# Revision: 0
# Processed by: cddbd v1.4PL0 Copyright (c) Steve Scherf et al.
# Submitted via: Kscd 1.3.3
#
DISCID=010cb612
DTITLE=Various Artist - The story of Rhythm and Blues [CD7)
DYEAR=1900
DGENRE=
TTITLE0=Big Joe Turner - Morning, noon and night 
TTITLE1=Albina Jones - Hole in the wall tonight 
TTITLE2=Dwight 'Gatemouth' Moore - I ain't mad at you pretty baby 
TTITLE3=Howlin' Wolf - Little red rooster 
TTITLE4=John Lee Hooker - Big fine woman 
TTITLE5=Frank Culley - Cole slaw 
TTITLE6=Little Esther - Hollerin' and screamin' 
TTITLE7=Jimmy Preston - Rock the joint 
TTITLE8=Muddy Waters - Can't get no grindin' 
TTITLE9=Wynonie Harris - Lovin' machine 
TTITLE10=Nappy Brown - Open the door 
TTITLE11=Cousin Joe - Box car Shorty and Peter Blue 
TTITLE12=Bullmoose Jackson - Big fat mamas are back in style again 
TTITLE13=Roy Milton - Milton's boogie 
TTITLE14=Louis Jordan - Saturday night fish fry 
TTITLE15=Buddy Johnson Orchestra - Did you see Jackie Robinson hit the ball? 
TTITLE16=Ella Mae Morse - Money honey 
TTITLE17=Walter Brown and Jay McShann and his Orchestra - The jumpin' blues 
EXTD=(c) Digimode Entertainment Ltd. UK 
EXTT0=Turner 
EXTT1=Jones 
EXTT2=Moore 
EXTT3=Morganfield 
EXTT4=Hooker 
EXTT5=Stone 
EXTT6=Esther 
EXTT7=Bagby - Craiton - Keene 
EXTT8=Morganfield 
EXTT9=Brown 
EXTT10=Brown 
EXTT11=Joseph - Pric 
EXTT12=Jackson 
EXTT13=Milton 
EXTT14=Jordan - Walsh 
EXTT15=Johnson 
EXTT16=Morse 
EXTT17=McShann 
PLAYORDER=
